<svg width="31" height="31" viewBox="0 0 31 31" fill="none" xmlns="http://www.w3.org/2000/svg">
<path fill-rule="evenodd" clip-rule="evenodd" d="M2.20231 2.86284C2.20231 2.49797 2.49809 2.20219 2.86296 2.20219H7.26733C7.87545 2.20219 8.36843 1.70921 8.36843 1.10109C8.36843 0.492976 7.87545 0 7.26733 0H2.86296C1.28186 0 0.00012207 1.28174 0.00012207 2.86284V7.26721C0.00012207 7.87533 0.493098 8.36831 1.10121 8.36831C1.70933 8.36831 2.20231 7.87533 2.20231 7.26721V2.86284ZM2.20231 27.2563C2.20231 27.6211 2.49809 27.9169 2.86296 27.9169H7.26733C7.87545 27.9169 8.36843 28.4099 8.36843 29.018C8.36843 29.6261 7.87545 30.1191 7.26733 30.1191H2.86296C1.28186 30.1191 0.00012207 28.8374 0.00012207 27.2563V22.8519C0.00012207 22.2438 0.493098 21.7508 1.10121 21.7508C1.70933 21.7508 2.20231 22.2438 2.20231 22.8519V27.2563ZM28.1373 2.20219C28.5022 2.20219 28.798 2.49797 28.798 2.86284V7.26721C28.798 7.87533 29.2909 8.36831 29.8991 8.36831C30.5072 8.36831 31.0001 7.87533 31.0001 7.26721V2.86284C31.0001 1.28174 29.7184 0 28.1373 0H23.7329C23.1248 0 22.6318 0.492976 22.6318 1.10109C22.6318 1.70921 23.1248 2.20219 23.7329 2.20219H28.1373ZM28.798 27.2563C28.798 27.6211 28.5022 27.9169 28.1373 27.9169H23.7329C23.1248 27.9169 22.6318 28.4099 22.6318 29.018C22.6318 29.6261 23.1248 30.1191 23.7329 30.1191H28.1373C29.7184 30.1191 31.0001 28.8374 31.0001 27.2563V22.8519C31.0001 22.2438 30.5072 21.7508 29.8991 21.7508C29.2909 21.7508 28.798 22.2438 28.798 22.8519V27.2563Z" fill="white"/>
<rect x="3.40479" y="12.7805" width="2.85474" height="4.7579" rx="1.42737" fill="white"/>
<rect x="8.56335" y="9.4502" width="2.85474" height="11.419" rx="1.42737" fill="white"/>
<rect x="13.7219" y="4.69238" width="2.85474" height="20.9348" rx="1.42737" fill="white"/>
<rect x="18.8805" y="9.4502" width="2.85474" height="11.419" rx="1.42737" fill="white"/>
<rect x="24.0392" y="12.7805" width="2.85474" height="4.7579" rx="1.42737" fill="white"/>
</svg>
